<svg width="200" height="30" viewBox="0 0 200 30" fill="none" xmlns="http://www.w3.org/2000/svg">
<path d="M0 14.9817L13.569 7.40089V10.6268C13.569 10.8657 13.5132 11.0868 13.4017 11.2899C13.2901 11.493 13.1005 11.6662 12.8328 11.8096L6.60881 15.2326C6.35226 15.376 6.07341 15.5014 5.77225 15.609C5.48224 15.7165 5.17551 15.8121 4.85204 15.8957C5.17551 15.9794 5.48224 16.0749 5.77225 16.1825C6.07341 16.278 6.35226 16.4035 6.60881 16.5588L12.8328 19.9818C13.1005 20.1252 13.2901 20.2985 13.4017 20.5016C13.5132 20.7047 13.569 20.9317 13.569 21.1826V24.4085L0 16.8097V14.9817Z" fill="black"/>
<path d="M21.2486 28.3154C21.137 28.6021 21.0032 28.847 20.847 29.0502C20.6909 29.2533 20.5068 29.4265 20.2949 29.5699C20.0941 29.7133 19.8766 29.8208 19.6424 29.8925C19.4193 29.9642 19.1962 30 18.9731 30H17.1996L27.2049 2.57999C27.3945 2.06624 27.6733 1.67196 28.0414 1.39717C28.4095 1.12237 28.8501 0.984971 29.3632 0.984971H31.1702L21.2486 28.3154Z" fill="black"/>
<path d="M34.667 24.4085V21.1826C34.667 20.9317 34.7227 20.7047 34.8343 20.5016C34.9458 20.2985 35.1354 20.1252 35.4031 19.9818L41.6271 16.5588C42.1291 16.284 42.7147 16.063 43.3839 15.8957C43.0604 15.8121 42.7481 15.7165 42.447 15.609C42.1569 15.5014 41.8837 15.376 41.6271 15.2326L35.4031 11.8096C35.1354 11.6662 34.9458 11.493 34.8343 11.2899C34.7227 11.0868 34.667 10.8657 34.667 10.6268V7.40089L48.2359 14.9817V16.8097L34.667 24.4085Z" fill="black"/>
<path d="M77.9876 26.4631C77.9876 27.4664 77.3365 27.968 76.0344 27.968C74.2526 27.968 72.3794 26.977 70.4149 24.995C68.4732 23.013 67.0911 20.9454 66.2688 18.7921C65.9033 19.9666 65.652 20.7619 65.5149 21.1779C65.3779 21.5938 65.1723 22.2545 64.8982 23.1598C64.624 24.0652 64.407 24.7381 64.2471 25.1785C64.1101 25.619 63.9501 26.0839 63.7674 26.5733C63.4247 27.5031 63.0935 27.968 62.7737 27.968C62.2483 27.968 61.6087 27.5031 60.8548 26.5733C60.1239 25.619 59.7584 24.8482 59.7584 24.2609C59.7584 23.6737 60.021 22.5848 60.5465 20.9943C62.0998 16.125 62.9907 11.6839 63.2192 7.67101C62.7851 7.30397 62.3968 6.79013 62.0541 6.12946C61.7115 5.4688 61.5402 4.91825 61.5402 4.47781C61.5402 3.74375 62.4196 2.97297 64.1786 2.1655C65.9604 1.35803 68.0049 0.954289 70.3121 0.954289C72.6422 0.954289 74.5839 1.54154 76.1372 2.71605C77.6906 3.89056 78.4673 5.41987 78.4673 7.30397C78.4673 8.6987 78.0789 10.0445 77.3022 11.3413C76.5484 12.6137 75.7146 13.617 74.8009 14.351C73.91 15.0606 73.0762 15.709 72.2995 16.2963C71.5457 16.8836 71.1687 17.2628 71.1687 17.4341C71.1687 18.0214 71.3515 18.5841 71.717 19.1225C72.0825 19.6363 72.5965 20.248 73.2589 20.9576C73.9214 21.6428 74.4925 22.23 74.9722 22.7194C75.4519 23.1843 75.8403 23.5758 76.1372 23.8939C76.457 24.212 76.7654 24.5423 77.0624 24.8849C77.6792 25.5211 77.9876 26.0472 77.9876 26.4631ZM73.1904 7.67101C73.1904 6.64331 72.2538 6.12946 70.3806 6.12946C69.4897 6.12946 68.4275 6.39862 67.1939 6.93694C67.765 7.86676 68.0506 8.72317 68.0506 9.50618C68.0506 10.9254 67.8678 12.4914 67.5023 14.2042C67.7536 14.0085 68.2219 13.6659 68.9072 13.1765C69.5925 12.6627 70.1179 12.2589 70.4834 11.9653C70.8718 11.6472 71.3058 11.2435 71.7855 10.7541C72.7221 9.7998 73.1904 8.77211 73.1904 7.67101Z" fill="black"/>
<path d="M96.5795 14.0207C97.4932 14.0207 98.1443 14.1186 98.5326 14.3143C98.9438 14.4856 99.1494 14.8159 99.1494 15.3053C99.1494 15.966 98.1557 16.6389 96.1683 17.324C96.214 19.1836 96.2368 20.9699 96.2368 22.6827C96.2368 24.371 96.1112 25.6434 95.8599 26.4998C95.6086 27.3318 95.2089 27.7478 94.6606 27.7478C94.1124 27.7478 93.6783 27.4541 93.3585 26.8669C93.0616 26.2552 92.8103 25.2642 92.6047 23.8939C92.4219 22.5236 92.2278 20.7129 92.0222 18.4618C89.6921 19.0246 88.0131 19.4773 86.9852 19.8198C85.2034 25.1051 84.0155 27.7478 83.4216 27.7478C82.9418 27.7478 82.3022 27.4052 81.5027 26.7201C80.726 26.0349 80.3377 25.3253 80.3377 24.5913C80.3377 24.1753 80.7831 22.8784 81.674 20.7007C81.2857 20.4316 80.943 20.0523 80.6461 19.5629C80.3719 19.0491 80.2349 18.5597 80.2349 18.0948C80.2349 17.2873 81.3656 16.5165 83.6272 15.7825C83.8099 15.2931 83.9927 14.7425 84.1754 14.1308C84.381 13.4946 84.8721 12.0265 85.6488 9.7264C86.4483 7.42632 87.0765 5.50551 87.5334 3.96396C87.739 3.2299 88.4472 2.54477 89.6579 1.90858C90.8914 1.27238 91.8509 0.954289 92.5362 0.954289C93.3357 0.954289 94.0438 2.14103 94.6606 4.51452C95.3002 6.888 95.7457 10.0567 95.997 14.0207H96.5795ZM88.6642 14.6446C89.3495 14.5468 90.3432 14.4244 91.6453 14.2776C91.5767 13.568 91.4625 12.3568 91.3026 10.644C91.1656 8.93116 91.0628 7.69548 90.9942 6.93694C90.6059 8.3072 89.8292 10.8764 88.6642 14.6446Z" fill="black"/>
<path d="M101.167 20.7007C101.167 20.04 101.224 19.5751 101.338 19.306C101.475 19.0368 101.704 18.9022 102.024 18.9022C102.366 18.9022 102.812 19.2448 103.36 19.9299C103.908 20.6151 104.525 21.3002 105.21 21.9853C105.919 22.6705 106.615 23.013 107.301 23.013C107.826 23.013 108.351 22.23 108.877 20.664C109.402 19.098 109.962 17.0915 110.556 14.6446C111.15 12.1733 111.527 10.5216 111.687 9.68969C112.052 7.75665 112.315 6.58214 112.475 6.16617C111.858 6.31298 110.83 6.4965 109.391 6.71672C107.974 6.91247 107.026 7.01035 106.547 7.01035C106.067 7.01035 105.679 6.8513 105.382 6.5332C105.085 6.21511 104.936 5.83584 104.936 5.3954C104.936 4.51452 105.804 3.71928 107.54 3.00968C109.299 2.30008 111.047 1.8107 112.783 1.54154C114.542 1.24792 115.753 1.1011 116.415 1.1011C117.694 1.1011 118.334 1.54154 118.334 2.42242C118.334 2.78946 117.923 4.31877 117.1 7.01035C116.278 9.70193 115.776 11.4637 115.593 12.2956C114.359 17.899 113.434 21.5204 112.817 23.1598C111.858 25.7291 110.624 27.2217 109.117 27.6376C108.751 27.7355 108.386 27.7845 108.02 27.7845C106.398 27.7845 104.845 26.9525 103.36 25.2886C101.898 23.6003 101.167 22.071 101.167 20.7007Z" fill="black"/>
<path d="M123.211 0.844178C123.782 0.844178 124.502 1.28462 125.37 2.1655C126.261 3.04638 126.706 3.91503 126.706 4.77144C126.706 5.60338 126.295 7.78112 125.472 11.3046C124.65 14.8282 124.239 17.2628 124.239 18.6086C124.239 19.9299 124.387 20.9454 124.684 21.655C125.004 22.3646 125.438 22.7194 125.986 22.7194C126.558 22.7194 127.22 22.2912 127.974 21.4348C128.728 20.5539 129.447 19.4283 130.133 18.0581C130.841 16.6633 131.423 15.0117 131.88 13.1031C132.36 11.1701 132.6 9.38383 132.6 7.74441C132.6 6.08053 132.52 4.74697 132.36 3.74374C132.223 2.74052 132.154 2.14103 132.154 1.94528C132.154 1.18674 132.451 0.807475 133.045 0.807475C133.776 0.807475 134.713 1.46814 135.855 2.78946C137.02 4.11078 137.602 5.68902 137.602 7.5242C137.602 9.33489 137.305 11.427 136.712 13.8005C136.118 16.1495 135.318 18.3762 134.313 20.4805C133.308 22.5848 132.029 24.3343 130.475 25.7291C128.945 27.1238 127.368 27.8212 125.747 27.8212C124.148 27.8212 122.697 26.9158 121.395 25.1051C120.093 23.2944 119.442 21.447 119.442 19.5629C119.442 17.6788 119.67 15.5011 120.127 13.0297C120.584 10.5339 121.041 8.29496 121.498 6.31298C121.955 4.331 122.183 2.92404 122.183 2.09209C122.183 1.26015 122.526 0.844178 123.211 0.844178Z" fill="black"/>
<path d="M157.981 27.1972C157.981 27.8579 157.204 28.3228 155.651 28.5919C154.12 28.8611 152.247 29.0568 150.031 29.1792C147.816 29.326 146.422 29.4239 145.851 29.4728C145.303 29.5218 144.458 29.6074 143.315 29.7297C142.196 29.8766 141.294 29.95 140.608 29.95C140.174 29.95 139.729 29.6074 139.272 28.9223C138.815 28.2371 138.587 27.552 138.587 26.8669C138.587 25.8392 141.865 25.3253 148.421 25.3253C152.647 25.3253 155.388 25.5456 156.645 25.986C157.536 26.2552 157.981 26.6589 157.981 27.1972Z" fill="black"/>
<path d="M169.979 21.4715C171.304 20.1991 172.457 18.6086 173.439 16.7C174.422 14.767 174.913 12.9196 174.913 11.1578C174.913 9.39607 174.707 8.03804 174.296 7.08375C173.885 6.12946 173.314 5.65232 172.583 5.65232C171.852 5.65232 170.892 6.36192 169.705 7.78112C168.54 9.17585 167.477 11.011 166.518 13.2866C165.581 15.5622 165.113 17.74 165.113 19.8198C165.113 20.872 165.25 21.7284 165.524 22.3891C165.798 23.0253 166.141 23.3434 166.552 23.3434C167.512 23.3434 168.654 22.7194 169.979 21.4715ZM166.586 27.7845C164.896 27.7845 163.388 26.9036 162.063 25.1418C160.738 23.3556 160.076 21.5816 160.076 19.8198C160.076 17.5687 160.476 15.2686 161.275 12.9196C162.075 10.5461 163.068 8.50295 164.256 6.79013C165.467 5.05283 166.792 3.63364 168.231 2.53253C169.67 1.40696 170.995 0.844178 172.206 0.844178C174.422 0.844178 176.238 1.85964 177.654 3.89056C179.07 5.89701 179.779 8.16039 179.779 10.6807C179.779 13.201 179.185 15.758 177.997 18.3517C176.809 20.9209 175.164 23.1354 173.063 24.995C170.984 26.8546 168.825 27.7845 166.586 27.7845Z" fill="black"/>
<path d="M183.93 27.6009C183.404 27.6009 182.776 27.136 182.045 26.2062C181.314 25.2519 180.948 24.4812 180.948 23.8939C180.948 23.3066 181.223 22.0954 181.771 20.2603C183.461 14.6324 184.364 9.70193 184.478 5.4688C183.701 4.58792 183.313 3.89056 183.313 3.37671C183.313 2.56924 184.204 1.8107 185.985 1.1011C187.79 0.367034 189.503 0 191.125 0C193.867 0 196.025 0.68513 197.601 2.05539C199.2 3.42565 200 5.17518 200 7.30397C200 10.02 198.755 12.4792 196.265 14.6814C193.798 16.8836 190.68 18.3884 186.911 19.1959C185.837 23.3311 185.129 25.7658 184.786 26.4998C184.466 27.2339 184.181 27.6009 183.93 27.6009ZM195.134 7.41408C195.134 6.63108 194.872 5.99489 194.346 5.50551C193.821 4.99166 193.113 4.73474 192.222 4.73474C191.331 4.73474 190.097 5.18741 188.521 6.09276C188.978 6.94917 189.206 7.71995 189.206 8.40508C189.206 9.75087 188.875 11.7451 188.213 14.3877C190.269 13.5068 191.936 12.4547 193.215 11.2312C194.495 9.98332 195.134 8.71094 195.134 7.41408Z" fill="black"/>
</svg>
